# xmcd CD database file
#
# Track frame offsets:
#	150
#	17734
#	33638
#	50777
#	67522
#	88440
#	106304
#	124295
#	141550
#	157169
#	171206
#	187517
#	200330
#	211983
#	228005
#	246574
#	262130
#	278548
#	294261
#	314784
#
# Disc length: 4476 seconds
#
# Revision: 0
# Processed by: cddbd v1.5.1PL2 Copyright (c) Steve Scherf et al.
# Submitted via: CDex 1.40Beta8
#
DISCID=30117a14
DTITLE=Various  - TMC HP200621
DYEAR=2006
DGENRE=Country
TTITLE0=Landon Pigg - Can't Let Go 
TTITLE1=Pink - Who Knew
TTITLE2=Cheyenne Kimball - Hanging On
TTITLE3=Ne-Yo - Sexy Love 
TTITLE4=Kellis F. Too $hort - Bossy
TTITLE5=Chingy F. Tyrese - Pullin' Me Back 
TTITLE6=Christina Millian - Gonna Tell Everybody
TTITLE7=Ali and Gipp F. Chocolate Tai - Go 'Head 
TTITLE8=Lil FLip - I'm A Balla (Flip My Chips) 
TTITLE9=Darryl Worley - Nothin' But A Love Thang
TTITLE10=Sammy Kershaw - Tennessee Girl
TTITLE11=Jack Ingram - Love You
TTITLE12=System Of A Down - Kill Rock and Roll 
TTITLE13=Foo Fighters - Miracle 
TTITLE14=Dashboard Confessional - Don't Wait
TTITLE15=Panic Channel - Why Cry
TTITLE16=Bunny Rugs - Now That We Found Love [Rmx]
TTITLE17=Sean Ensign - It's My Life [Rmx]
TTITLE18=Avalon - Orphans Of God 
TTITLE19=Delirious? - Stronger
EXTD=YEAR: 2006 ID3G: 2
EXTT0=
EXTT1=
EXTT2=
EXTT3=
EXTT4=
EXTT5=
EXTT6=
EXTT7=
EXTT8=
EXTT9=
EXTT10=
EXTT11=
EXTT12=
EXTT13=
EXTT14=
EXTT15=
EXTT16=
EXTT17=
EXTT18=
EXTT19=
PLAYORDER=
